<svg width="100%" height="100%" viewBox="0 0 37 37" fill="none" xmlns="http://www.w3.org/2000/svg">
<path fill-rule="evenodd" clip-rule="evenodd" d="M10.2778 10.2778C9.42634 11.1292 9.42634 12.5097 10.2778 13.3611L15.4167 18.5L10.2778 23.6389C9.42634 24.4903 9.42634 25.8708 10.2778 26.7222C11.1292 27.5737 12.5097 27.5737 13.3611 26.7222L18.5 21.5833L23.6389 26.7222C24.4903 27.5737 25.8708 27.5737 26.7222 26.7222C27.5737 25.8708 27.5737 24.4903 26.7222 23.6389L21.5833 18.5L26.7222 13.3611C27.5737 12.5097 27.5737 11.1292 26.7222 10.2778C25.8708 9.42634 24.4903 9.42634 23.6389 10.2778L18.5 15.4167L13.3611 10.2778C12.5097 9.42634 11.1292 9.42634 10.2778 10.2778Z" fill="#333333"/>
<path fill-rule="evenodd" clip-rule="evenodd" d="M9.25 14.3889C7.83094 12.9698 7.83093 10.6691 9.25 9.25C10.6691 7.83093 12.9698 7.83094 14.3889 9.25L18.5 13.3611L22.6111 9.25C24.0302 7.83093 26.3309 7.83093 27.75 9.25C29.1691 10.6691 29.1691 12.9698 27.75 14.3889L23.6389 18.5L27.75 22.6111C29.1691 24.0302 29.1691 26.3309 27.75 27.75C26.3309 29.1691 24.0302 29.1691 22.6111 27.75L18.5 23.6389L14.3889 27.75C12.9698 29.1691 10.6691 29.1691 9.25 27.75C7.83093 26.3309 7.83093 24.0302 9.25 22.6111L13.3611 18.5L9.25 14.3889ZM10.2778 13.3611C9.42634 12.5097 9.42634 11.1292 10.2778 10.2778C11.1292 9.42634 12.5097 9.42634 13.3611 10.2778L18.5 15.4167L23.6389 10.2778C24.4903 9.42634 25.8708 9.42634 26.7222 10.2778C27.5737 11.1292 27.5737 12.5097 26.7222 13.3611L21.5833 18.5L26.7222 23.6389C27.5737 24.4903 27.5737 25.8708 26.7222 26.7222C25.8708 27.5737 24.4903 27.5737 23.6389 26.7222L18.5 21.5833L13.3611 26.7222C12.5097 27.5737 11.1292 27.5737 10.2778 26.7222C9.42634 25.8708 9.42634 24.4903 10.2778 23.6389L15.4167 18.5L10.2778 13.3611Z" fill="white"/>
</svg>
