<svg xmlns="http://www.w3.org/2000/svg" width="170" height="23" viewBox="0 0 170 23">
  <metadata><?xpacket begin="﻿" id="W5M0MpCehiHzreSzNTczkc9d"?>
<x:xmpmeta xmlns:x="adobe:ns:meta/" x:xmptk="Adobe XMP Core 5.6-c138 79.159824, 2016/09/14-01:09:01        ">
   <rdf:RDF xmlns:rdf="http://www.w3.org/1999/02/22-rdf-syntax-ns#">
      <rdf:Description rdf:about=""/>
   </rdf:RDF>
</x:xmpmeta>
                                                                                                    
                                                                                                    
                                                                                                    
                                                                                                    
                                                                                                    
                                                                                                    
                                                                                                    
                                                                                                    
                                                                                                    
                                                                                                    
                                                                                                    
                                                                                                    
                                                                                                    
                                                                                                    
                                                                                                    
                                                                                                    
                                                                                                    
                                                                                                    
                                                                                                    
                                                                                                    
                           
<?xpacket end="w"?></metadata>
<defs>
    <style>
      .cls-1 {
        fill: #f57920;
        fill-rule: evenodd;
      }
    </style>
  </defs>
  <path id="logo_fiftygym_small" class="cls-1" d="M1042.56,30.635V48.771H1045V26.221h-3.59l-3.67,18.008-3.79-18.008h-3.59v22.55h2.24V30.8l3.83,17.943h2.47Zm-31.74,18.137h2.54V40.686l4.92-14.464h-2.44L1012.21,37.3l-3.59-11.081h-2.68l4.88,14.464v8.086ZM989.314,26c-3.529,0-5.178,2.255-5.178,5.669V43.327c0,3.414,1.649,5.67,5.178,5.67,3.562,0,5.211-2.255,5.211-5.67V36.691H989.71v2.255h2.374v4.51c0,2.029-.824,3.254-2.7,3.254-1.847,0-2.7-1.224-2.7-3.254V31.537c0-2.029.857-3.254,2.7-3.254,1.88,0,2.7,1.224,2.7,3.254V33.6h2.441V31.665C994.525,28.251,992.876,26,989.314,26ZM959.657,48.771h2.54V40.686l4.914-14.464H964.67L961.042,37.3l-3.6-11.081h-2.671l4.881,14.464v8.086Zm-20.356,0V28.509h4.254V26.221H932.507v2.287h4.254V48.771h2.54ZM914.525,36.723V28.509h6.6V26.221h-9.169v22.55h2.573V39.01h5.309V36.723h-5.309Zm-18.048-10.5v22.55h2.572V26.221h-2.572Zm-18.906,10.5V28.509h6.6V26.221H875v22.55h2.572V39.01h5.31V36.723h-5.31Z" transform="translate(-875 -26)"/>
</svg>
